<?xml version="1.0" encoding="utf-8"?>
<!-- Generator: Adobe Illustrator 19.0.0, SVG Export Plug-In . SVG Version: 6.00 Build 0)  -->
<svg version="1.1" id="Layer_1" xmlns="http://www.w3.org/2000/svg" xmlns:xlink="http://www.w3.org/1999/xlink" x="0px" y="0px"
	 viewBox="0 0 400 400" style="enable-background:new 0 0 400 400;" xml:space="preserve">
<style type="text/css">
	.st0{fill:#82C885;}
	.st1{fill:#F5C253;}
	.st2{fill:#EC5244;}
	.st3{fill:#4EAF4D;}
</style>
<path id="XMLID_6_" class="st0" d="M350.8,336.4H49.2c-7.9,0-14.4-6.4-14.4-14.4c0-7.9,6.4-14.4,14.4-14.4h301.6
	c7.9,0,14.4,6.4,14.4,14.4C365.2,330,358.7,336.4,350.8,336.4z"/>
<path id="XMLID_5_" class="st1" d="M99.5,279h71.8c7.9,0,14.4,6.4,14.4,14.4v57.4c0,7.9-6.4,14.4-14.4,14.4H99.5
	c-7.9,0-14.4-6.4-14.4-14.4v-57.4C85.1,285.4,91.5,279,99.5,279z"/>
<path id="XMLID_4_" class="st0" d="M350.8,214.4H49.2c-7.9,0-14.4-6.4-14.4-14.4s6.4-14.4,14.4-14.4h301.6c7.9,0,14.4,6.4,14.4,14.4
	S358.7,214.4,350.8,214.4z"/>
<path id="XMLID_3_" class="st0" d="M350.8,92.3H49.2c-7.9,0-14.4-6.4-14.4-14.4s6.4-14.4,14.4-14.4h301.6c7.9,0,14.4,6.4,14.4,14.4
	S358.7,92.3,350.8,92.3z"/>
<path id="XMLID_2_" class="st2" d="M99.5,34.8h71.8c7.9,0,14.4,6.4,14.4,14.4v57.4c0,7.9-6.4,14.4-14.4,14.4H99.5
	c-7.9,0-14.4-6.4-14.4-14.4V49.2C85.1,41.3,91.5,34.8,99.5,34.8z"/>
<path id="XMLID_1_" class="st3" d="M228.7,156.9h71.8c7.9,0,14.4,6.4,14.4,14.4v57.4c0,7.9-6.4,14.4-14.4,14.4h-71.8
	c-7.9,0-14.4-6.4-14.4-14.4v-57.4C214.4,163.3,220.8,156.9,228.7,156.9z"/>
</svg>
