<?xml version="1.0" encoding="utf-8"?>
<!-- Generator: Adobe Illustrator 19.0.0, SVG Export Plug-In . SVG Version: 6.00 Build 0)  -->
<svg version="1.1" id="Layer_1" xmlns="http://www.w3.org/2000/svg" xmlns:xlink="http://www.w3.org/1999/xlink" x="0px" y="0px"
	 viewBox="0 0 400 400" style="enable-background:new 0 0 400 400;" xml:space="preserve">
<style type="text/css">
	.st0{fill:#51AF4B;}
</style>
<path id="XMLID_7_" class="st0" d="M352.5,134.6V47.5h-87.2v32.7h-54.5c-12,0-21.8,9.8-21.8,21.8v87.2h-54.5v-32.7H47.5v87.2h87.2
	v-32.7h54.5v87.2c0,12,9.8,21.8,21.8,21.8h54.5v32.7h87.2v-87.2h-87.2v32.7h-54.5v-87.2h54.5v32.7h87.2v-87.2h-87.2v32.7h-54.5
	v-87.2h54.5v32.7H352.5z M112.8,221.8H69.2v-43.6h43.6V221.8z M287.2,287.2h43.6v43.6h-43.6V287.2z M287.2,178.2h43.6v43.6h-43.6
	V178.2z M287.2,69.2h43.6v43.6h-43.6V69.2z"/>
</svg>
