<?xml version="1.0" encoding="utf-8"?>
<!-- Generator: Adobe Illustrator 19.0.0, SVG Export Plug-In . SVG Version: 6.00 Build 0)  -->
<svg version="1.1" id="Layer_1" xmlns="http://www.w3.org/2000/svg" xmlns:xlink="http://www.w3.org/1999/xlink" x="0px" y="0px"
	 viewBox="0 0 150 150" style="enable-background:new 0 0 150 150;" xml:space="preserve">
<style type="text/css">
	.st0{fill:#4DAF4F;}
	.st1{fill:#82C885;}
	.st2{fill:#FFFFFF;}
	.st3{font-family:'Arial-BoldMT';}
	.st4{font-size:19px;}
</style>
<g id="XMLID_5_">
	<g id="XMLID_4_">
		<path class="st0" d="M46.3,35h60c5.5,0,10,4.5,10,10v60c0,5.5-4.5,10-10,10h-60c-5.5,0-10-4.5-10-10V45C36.3,39.5,40.7,35,46.3,35
			z"/>
		<g id="XMLID_3_">
			<path id="XMLID_2_" class="st1" d="M46.4,70.9l24.6-24.6c2.3-2.3,5.9-2.3,8.2,0l24.6,24.6c2.3,2.3,2.3,5.9,0,8.2l-24.6,24.6
				c-2.3,2.3-5.9,2.3-8.2,0L46.4,79.1C44.1,76.8,44.1,73.2,46.4,70.9z"/>
			<text id="XMLID_1_" transform="matrix(1 0 0 1 56.4668 81.5742)" class="st2 st3 st4">MJS</text>
		</g>
	</g>
	<g>
		<circle class="st0" cx="116.3" cy="115" r="20"/>
		<circle class="st0" cx="33.7" cy="35" r="20"/>
		<circle class="st1" cx="36.3" cy="115" r="20"/>
		<circle class="st1" cx="116.3" cy="35" r="20"/>
	</g>
</g>
</svg>
