<?xml version="1.0" encoding="utf-8"?>
<!-- Generator: Adobe Illustrator 19.0.0, SVG Export Plug-In . SVG Version: 6.00 Build 0)  -->
<svg version="1.1" id="Layer_1" xmlns="http://www.w3.org/2000/svg" xmlns:xlink="http://www.w3.org/1999/xlink" x="0px" y="0px"
	 viewBox="0 0 400 400" style="enable-background:new 0 0 400 400;" xml:space="preserve">
<style type="text/css">
	.st0{fill:#51AF4D;}
	.st1{fill:#84C886;}
	.st2{fill:#FFFFFF;}
	.st3{font-family:'Arial-BoldMT';}
	.st4{font-size:29.4503px;}
	.st5{fill:#51AF4B;}
</style>
<path id="XMLID_10_" class="st0" d="M153.5,186.1h93c8.5,0,15.5,7,15.5,15.5v93c0,8.5-7,15.5-15.5,15.5h-93c-8.5,0-15.5-7-15.5-15.5
	v-93C138,193.1,144.8,186.1,153.5,186.1z"/>
<path id="XMLID_2_" class="st1" d="M155.6,241.8l38.1-38.1c3.6-3.6,9.1-3.6,12.7,0l38.1,38.1c3.6,3.6,3.6,9.1,0,12.7l-38.1,38.1
	c-3.6,3.6-9.1,3.6-12.7,0l-38.1-38.1C152,250.9,152,245.4,155.6,241.8z"/>
<text id="XMLID_1_" transform="matrix(1 0 0 1 171.2568 258.337)" class="st2 st3 st4">MJS</text>
<g>
	<path id="XMLID_11_" class="st5" d="M326.4,61.6c2.9,0,5.3,2.4,5.3,5.3v26.4h31.6V66.8c0-2.9,2.4-5.3,5.3-5.3s5.3,2.4,5.3,5.3v26.4
		h10.5c2.9,0,5.3,2.4,5.3,5.3v31.6c0,20.4-16.5,36.9-36.9,36.9c0,4.6-0.1,8.9-0.4,12.9c-0.4,5.4-1.3,10.6-3.3,15
		c-2,4.7-5.7,8.5-10.2,10.8c-4.7,2.4-10.6,3.5-17.6,3.5c-10.5,0-17,3.5-20.8,7.6c-3.5,3.7-5.4,8.5-5.5,13.5h-10.5
		c0-6.5,2.4-14.4,8.4-20.8c6.1-6.5,15.4-10.9,28.5-10.9c6.1,0,10.1-0.9,12.8-2.3c2.5-1.3,4.2-3.2,5.4-5.8c1.3-2.8,2-6.5,2.4-11.5
		c0.3-3.6,0.4-7.6,0.4-12c-20.4,0-36.9-16.5-36.9-36.9V98.5c0-2.9,2.4-5.3,5.3-5.3h10.5V66.8C321.1,63.9,323.4,61.6,326.4,61.6z"/>
	<path id="XMLID_5_" class="st5" d="M79.6,66.1l-0.2,26.4l10.5,0.1c2.9,0,5.3,2.4,5.2,5.3l-0.2,31.6c-0.2,20.4-16.8,36.8-37.2,36.6
		c0,4.5,0,8.4,0.3,12c0.4,4.9,1.1,8.7,2.3,11.5c1.2,2.6,2.8,4.5,5.4,5.8c2.7,1.4,6.7,2.4,12.8,2.4c13.1,0.1,22.4,4.6,28.4,11.1
		c5.9,6.4,8.3,14.3,8.2,20.8l-10.5-0.1c-0.1-5-2-9.9-5.4-13.6c-3.8-4.1-10.2-7.7-20.8-7.7c-7.1-0.1-12.9-1.2-17.6-3.6
		c-4.6-2.3-8.1-6.2-10.1-10.9c-2-4.5-2.8-9.6-3.2-15c-0.3-4-0.3-8.3-0.3-12.9c-20.4-0.2-36.8-16.8-36.6-37.2l0.2-31.6
		c0-2.9,2.4-5.3,5.3-5.2L26.6,92l0.2-26.4c0-2.9,2.4-5.3,5.3-5.2s5.3,2.4,5.2,5.3l-0.2,26.4l31.6,0.2L69,66.1c0-2.9,2.4-5.3,5.3-5.2
		S79.6,63.2,79.6,66.1z"/>
</g>
</svg>
